<?xml version="1.0" standalone="no"?>
<!DOCTYPE svg PUBLIC "-//W3C//DTD SVG 20010904//EN"
 "http://www.w3.org/TR/2001/REC-SVG-20010904/DTD/svg10.dtd">
<svg version="1.0" xmlns="http://www.w3.org/2000/svg"
 width="512.000000pt" height="512.000000pt" viewBox="0 0 512.000000 512.000000"
 preserveAspectRatio="xMidYMid meet">
<metadata>
Created by potrace 1.14, written by Peter Selinger 2001-2017
</metadata>
<g transform="translate(0.000000,512.000000) scale(0.100000,-0.100000)"
fill="#000000" stroke="none">
<path d="M2435 4941 c-2 -2 -34 -5 -70 -7 -36 -2 -78 -6 -93 -9 -15 -3 -43 -8
-62 -10 -45 -5 -88 -12 -125 -20 -16 -4 -37 -8 -45 -10 -8 -2 -16 -4 -17 -5
-4 -3 -12 -5 -60 -14 -24 -4 -43 -11 -43 -15 0 -4 -8 -7 -17 -8 -44 -3 -63 -8
-63 -16 0 -4 -4 -6 -8 -3 -4 2 -28 -4 -52 -15 -24 -11 -51 -21 -59 -22 -9 -1
-23 -7 -31 -12 -8 -5 -24 -11 -34 -12 -11 -2 -29 -11 -40 -21 -15 -13 -18 -13
-12 -2 4 8 1 7 -7 -3 -9 -10 -17 -17 -19 -16 -5 3 -52 -13 -58 -20 -3 -3 -36
-22 -75 -41 -38 -19 -71 -38 -73 -42 -2 -5 -9 -8 -17 -8 -7 0 -18 -7 -25 -15
-7 -8 -16 -12 -21 -9 -5 3 -9 0 -9 -6 0 -6 -10 -15 -22 -21 -45 -20 -68 -36
-61 -42 3 -4 -1 -7 -10 -7 -10 0 -26 -8 -37 -17 -10 -10 -31 -28 -44 -40 -14
-13 -28 -23 -31 -23 -4 0 -13 -6 -20 -12 -7 -7 -35 -31 -61 -53 -71 -59 -224
-214 -224 -226 0 -6 -4 -7 -10 -4 -5 3 -10 2 -10 -3 0 -5 -18 -30 -40 -55 -22
-25 -40 -47 -40 -50 0 -3 -14 -21 -30 -39 -17 -18 -30 -38 -30 -45 0 -7 -4
-13 -9 -13 -6 0 -22 -22 -38 -50 -15 -27 -32 -50 -36 -50 -5 0 -5 -4 -2 -10 3
-5 2 -10 -4 -10 -5 0 -16 -12 -24 -27 -7 -16 -37 -71 -65 -124 -57 -105 -142
-303 -142 -331 0 -9 -4 -19 -9 -22 -5 -3 -11 -16 -13 -28 -3 -13 -18 -70 -33
-127 -29 -110 -29 -110 -46 -211 -17 -104 -18 -110 -26 -210 -17 -223 0 -486
44 -680 8 -36 16 -72 18 -80 9 -39 34 -128 45 -155 6 -16 11 -30 10 -30 -6 0
52 -150 62 -162 6 -7 7 -13 4 -13 -4 0 -1 -10 6 -22 7 -13 11 -26 10 -30 -1
-3 5 -12 13 -18 8 -7 15 -17 15 -23 0 -16 42 -101 54 -109 6 -4 8 -8 4 -8 -4
0 4 -16 17 -36 14 -20 22 -40 19 -45 -3 -5 -1 -9 5 -9 5 0 22 -22 38 -50 15
-27 31 -50 36 -50 4 0 7 -6 7 -13 0 -8 9 -22 20 -32 11 -10 20 -22 20 -26 0
-10 23 -40 58 -76 12 -13 22 -26 22 -28 0 -17 282 -303 339 -345 19 -14 47
-37 62 -51 16 -15 30 -25 32 -23 2 2 12 -5 22 -16 10 -11 24 -20 32 -20 7 0
13 -4 13 -8 0 -5 12 -15 27 -23 15 -8 38 -23 51 -34 13 -11 25 -18 27 -15 1 3
11 -2 21 -10 33 -26 286 -160 303 -160 5 0 30 -10 57 -22 27 -12 55 -21 62
-20 6 2 12 -2 12 -8 0 -5 3 -9 8 -8 8 2 86 -20 117 -32 28 -12 145 -42 175
-45 14 -1 25 -3 25 -4 0 -4 73 -17 155 -28 185 -23 525 -23 646 1 12 2 45 7
74 11 29 4 63 10 74 15 12 4 29 6 39 5 9 -2 17 2 17 8 0 5 3 8 6 5 3 -3 38 3
77 14 39 11 78 22 87 23 8 2 15 4 15 5 0 1 7 3 15 5 8 2 29 9 45 16 17 6 39
14 49 16 11 2 25 8 31 13 6 5 20 11 31 13 10 2 50 18 88 35 38 18 73 32 77 32
5 0 9 4 9 10 0 5 3 9 8 8 9 -3 165 82 173 94 3 5 10 9 15 9 5 -1 17 6 27 14 9
8 20 15 23 15 5 0 64 40 74 50 3 3 24 18 48 34 23 16 42 33 42 39 0 6 3 8 6 4
3 -3 18 5 32 18 63 55 87 75 95 75 4 0 7 8 7 17 0 9 2 14 6 11 5 -6 174 159
174 169 0 4 14 19 32 35 17 15 29 28 25 28 -4 0 11 19 33 42 22 24 40 48 40
55 0 6 3 13 8 15 12 5 67 82 64 91 -1 4 5 10 13 13 8 3 13 9 10 14 -2 4 5 17
16 28 11 12 17 22 14 22 -3 0 8 20 25 45 17 25 27 45 23 45 -4 0 -3 4 3 8 6 4
31 50 56 102 68 143 81 174 81 188 0 6 5 12 10 12 6 0 8 3 4 6 -3 4 0 19 8 34
8 15 16 38 19 51 2 13 11 43 20 67 8 23 13 42 9 42 -3 0 0 7 7 15 6 8 9 19 5
25 -3 5 -1 10 4 10 6 0 10 3 9 8 -1 4 2 27 7 52 5 25 10 50 10 55 1 6 5 25 9
43 4 19 9 46 11 60 9 69 18 159 19 180 0 12 5 22 10 22 6 0 6 4 -1 11 -7 7 -8
21 -3 39 4 15 4 33 0 41 -5 7 -5 20 -1 28 9 20 8 162 -2 178 -4 6 -3 14 3 18
6 4 7 11 3 18 -3 6 -8 42 -10 81 -2 39 -7 73 -11 76 -4 3 -7 25 -8 50 -1 59
-7 103 -15 115 -3 6 -5 20 -4 33 1 12 -2 22 -7 22 -5 0 -8 6 -7 13 3 18 -12
87 -20 87 -3 0 -7 10 -8 23 -2 24 -7 44 -15 67 -3 8 -16 44 -28 80 -11 36 -25
74 -30 85 -19 41 -33 80 -32 88 1 4 -2 7 -8 7 -5 0 -10 6 -10 14 0 21 -100
207 -152 284 -16 23 -26 42 -22 42 4 0 -3 9 -16 20 -13 11 -20 20 -16 20 4 0
-4 14 -18 31 -14 17 -26 34 -26 37 0 4 -15 24 -33 44 -17 20 -43 51 -57 69
-14 18 -55 65 -92 103 -38 39 -68 75 -68 80 0 5 -2 7 -6 4 -3 -3 -29 19 -58
48 -29 30 -56 54 -60 54 -4 0 -19 11 -34 25 -44 41 -55 50 -107 86 -27 19 -56
40 -63 47 -7 6 -17 12 -22 12 -5 0 -15 6 -22 13 -12 11 -34 26 -143 89 -50 29
-140 72 -147 70 -5 -1 -8 3 -8 8 0 5 -3 9 -7 8 -5 0 -25 6 -45 16 -21 9 -41
17 -45 17 -5 1 -25 10 -45 20 -21 11 -38 17 -38 13 0 -4 -6 -1 -13 5 -8 6 -22
12 -33 14 -10 2 -27 7 -36 11 -9 4 -22 9 -30 10 -7 2 -20 5 -28 8 -37 13 -97
29 -120 32 -14 2 -32 6 -40 10 -8 3 -31 7 -50 8 -19 2 -37 6 -40 10 -3 3 -23
7 -45 9 -22 1 -46 8 -54 13 -12 9 -13 8 -6 -4 7 -12 6 -13 -6 -4 -13 10 -54
15 -134 17 -16 1 -33 6 -37 12 -5 6 -8 5 -8 -3 0 -7 -5 -10 -12 -6 -11 7 -267
12 -273 5z"/>
</g>
</svg>
